<svg width="24" height="24" viewBox="0 0 24 24" fill="none" xmlns="http://www.w3.org/2000/svg">
<path d="M24 21.6C24 22.0419 23.6681 22.4 23.2249 22.4C21.0711 22.4 20.2327 24 17.6125 24C14.9858 24 14.1359 22.4 12 22.4C9.8555 22.4 9.02111 24 6.38753 24C3.76677 24 2.92918 22.4 0.775056 22.4C0.331938 22.4 0 22.0419 0 21.6C0 21.1581 0.331938 20.8 0.775056 20.8C3.41933 20.8 4.2612 22.4 6.38753 22.4C8.52454 22.4 9.36962 20.8 12 20.8C14.6288 20.8 15.4776 22.4 17.6125 22.4C19.7482 22.4 20.5718 20.8 23.2249 20.8C23.6681 20.8 24 21.1581 24 21.6Z" fill="#0F5252"/>
<path d="M24 16.8C24 17.2419 23.6681 17.6 23.2249 17.6C21.0711 17.6 20.2327 19.2 17.6125 19.2C14.9858 19.2 14.1359 17.6 12 17.6C9.8555 17.6 9.02111 19.2 6.38753 19.2C3.76677 19.2 2.92918 17.6 0.775056 17.6C0.331938 17.6 0 17.2419 0 16.8C0 16.3581 0.331938 16 0.775056 16C3.41933 16 4.2612 17.6 6.38753 17.6C8.52454 17.6 9.36962 16 12 16C14.6288 16 15.4776 17.6 17.6125 17.6C19.7482 17.6 20.5718 16 23.2249 16C23.6681 16 24 16.3581 24 16.8Z" fill="#0F5252"/>
<path d="M12 13.6C11.5581 13.6 11.2 13.2421 11.2 12.8L11.2 5.12987L9.3656 6.96427C9.05307 7.2768 8.54693 7.2768 8.2344 6.96427C7.92187 6.65173 7.92187 6.1456 8.2344 5.83307L11.4339 2.6336C11.7435 2.32347 12.2539 2.3208 12.5661 2.6336L15.7656 5.83307C16.0781 6.1456 16.0781 6.65173 15.7656 6.96427C15.4531 7.2768 14.9469 7.2768 14.6344 6.96427L12.8 5.12987L12.8 12.8C12.8 13.2421 12.4419 13.6 12 13.6Z" fill="#0F5252"/>
</svg>
