<svg width="170" height="45" viewBox="0 0 170 45" fill="none" xmlns="http://www.w3.org/2000/svg">
<path fill-rule="evenodd" clip-rule="evenodd" d="M108.693 0.0430865C110.641 2.33898 113.633 7.06992 112.102 10.2703C109.111 10.0615 108.554 7.48735 108.276 4.5653C101.875 3.10428 102.501 8.67008 97.2833 8.39179C96.3789 7.34821 96.031 5.81761 94.9875 4.98274C92.8307 5.88718 91.2305 5.3306 88.9346 6.51333C86.6388 7.69607 85.8039 10.2703 83.995 10.3398C81.6295 10.4094 80.8642 7.97436 79.0553 6.16547C73.42 5.74804 73.4895 10.966 69.176 11.8704C65.6278 10.966 65.6974 7.41778 62.7058 6.58291C57.9053 5.19146 53.7309 11.8704 49 8.8788C52.0612 2.5477 64.5843 0.0430865 68.4107 7.34821C72.3764 3.38257 80.1685 -1.83537 83.2297 6.16547C85.7343 2.40855 90.7435 1.57368 95.4049 0.877956C96.5876 1.7824 97.2834 3.03471 98.4661 3.93915C100.832 0.808384 103.684 -0.235204 108.693 0.0430865Z" fill="#EDD79D"/>
<path fill-rule="evenodd" clip-rule="evenodd" d="M110.572 23.2107C105.284 23.5586 105.354 18.5494 104.519 14.4446C100.136 15.1403 100.692 21.4019 96.9355 21.6802C93.596 21.8889 92.9698 17.3667 90.8827 14.862C86.5692 16.4622 87.0562 23.002 80.5859 22.4455C78.6379 20.8453 77.3856 18.5494 76.4116 15.9752C70.15 16.3231 71.6806 24.3935 63.8885 23.2107C61.8013 21.7497 61.4535 18.5494 59.7142 16.7405C55.0528 16.0448 54.8441 19.7321 53.2439 22.028C46.2867 18.6885 55.9572 8.73966 61.5926 13.2619C62.4275 15.3491 63.0536 17.6449 64.6538 18.9668C69.8718 17.3667 70.9849 9.92239 78.3596 11.7313C80.0989 13.0532 79.2641 16.8796 81.0034 18.2015C84.8299 17.0188 85.8039 10.2007 89.7695 10.2007C92.7611 10.2007 93.5264 14.3055 95.4745 16.6709C98.8835 16.0448 101.666 5.60889 106.884 11.3834C107.093 13.9576 108.206 15.6273 108.415 18.2015C109.946 19.0364 111.963 20.7061 110.572 23.2107Z" fill="#EDD79D"/>
<path fill-rule="evenodd" clip-rule="evenodd" d="M61.9405 29.3331C68.2021 29.6114 69.6631 23.1412 74.881 23.6282C77.3856 24.3935 77.6639 27.4547 79.0554 29.3331C82.2557 28.0113 84.2733 22.7933 88.5868 23.2803C91.0914 23.5586 91.9959 25.6458 93.5265 27.8721C96.9355 27.3155 97.2834 23.1412 100.345 23.2803C103.336 23.4195 105.632 28.6374 106.815 32.0465C106.606 32.603 105.354 32.116 105.284 32.8118C102.64 32.5335 102.501 29.7506 101.11 28.22C97.4921 29.0548 97.0747 33.0901 92.7612 33.1596C91.7176 31.2116 90.7436 29.0548 88.9347 27.8721C83.995 28.4287 83.5776 34.9685 77.9422 33.5771C76.5508 31.7682 76.2029 28.9853 74.1157 27.8721C70.1501 29.8897 67.3672 34.6207 61.5927 33.5771C60.2012 31.7682 58.3923 30.4463 58.1836 27.5243C55.8181 27.3155 54.8441 28.4983 54.0093 29.8201C52.8265 29.4723 51.9221 28.8461 50.9481 28.2895C52.2004 21.2627 61.6622 22.6542 61.9405 29.3331Z" fill="#EDD79D"/>
<path fill-rule="evenodd" clip-rule="evenodd" d="M92.7612 39.2124C96.1703 34.6902 101.806 31.9769 104.519 39.9777C108.693 41.1605 108.554 36.9861 111.337 37.6818C116.555 38.9342 110.015 47.0741 103.336 44.5C102.223 42.6911 101.249 40.743 100.275 38.795C96.9356 40.1865 95.6833 44.5695 92.2742 43.7347C89.6304 43.1085 90.1175 39.5603 87.3346 38.0297C84.3429 39.9082 83.5776 44.0825 77.9423 43.3868C76.1334 41.8562 76.3421 40.6735 74.8811 38.795C68.6891 38.5863 69.3153 44.2217 65.0018 44.5C60.1317 44.7782 57.1401 34.9685 54.0093 42.6215C52.6178 42.3432 52.1308 41.23 51.3655 40.3256C52.2004 38.2384 53.1049 35.7338 55.5399 35.3859C59.5751 34.8294 60.6187 40.1865 63.8886 39.9777C65.8366 39.8386 65.4888 38.2384 67.2977 36.9165C72.0286 33.5075 77.2465 34.3424 79.0554 39.2124C82.9515 38.0993 83.2993 33.0205 87.8216 33.9249C90.4653 34.4119 90.5349 37.5427 92.7612 39.2124Z" fill="#EDD79D"/>
<path d="M6.87002 33.24C10.44 33.24 12.87 31.02 12.87 27.57V22.02C12.87 21.81 12.72 21.66 12.51 21.66H7.17002C6.96002 21.66 6.81002 21.81 6.81002 22.02V24.69C6.81002 24.9 6.96002 25.05 7.17002 25.05H8.49003C8.58002 25.05 8.64002 25.11 8.64002 25.2V27.6C8.64002 28.8 7.92002 29.61 6.87002 29.61C5.82002 29.61 5.13002 28.8 5.13002 27.6V17.4C5.13002 16.2 5.82002 15.39 6.87002 15.39C7.92002 15.39 8.64002 16.2 8.64002 17.4V18.6C8.64002 18.81 8.79002 18.96 9.00002 18.96H12.51C12.72 18.96 12.87 18.81 12.87 18.6V17.46C12.87 13.98 10.44 11.76 6.87002 11.76C3.27002 11.76 0.900024 13.98 0.900024 17.43V27.57C0.900024 31.02 3.27002 33.24 6.87002 33.24Z" fill="#FF9830"/>
<path d="M20.791 33.24C24.391 33.24 26.761 30.78 26.761 27.03V12.36C26.761 12.15 26.611 12 26.401 12H22.891C22.681 12 22.531 12.15 22.531 12.36V27.45C22.531 28.74 21.841 29.61 20.791 29.61C19.741 29.61 19.081 28.74 19.081 27.45V12.36C19.081 12.15 18.931 12 18.721 12H15.211C15.001 12 14.851 12.15 14.851 12.36V27.03C14.851 30.78 17.221 33.24 20.791 33.24Z" fill="#FF9830"/>
<path d="M29.4806 33H32.9906C33.2006 33 33.3506 32.85 33.3506 32.64V12.36C33.3506 12.15 33.2006 12 32.9906 12H29.4806C29.2706 12 29.1206 12.15 29.1206 12.36V32.64C29.1206 32.85 29.2706 33 29.4806 33Z" fill="#FF9830"/>
<path d="M36.1603 33H41.5903C45.2203 33 47.6203 30.69 47.6203 27.18V17.82C47.6203 14.31 45.2203 12 41.5903 12H36.1603C35.9503 12 35.8003 12.15 35.8003 12.36V32.64C35.8003 32.85 35.9503 33 36.1603 33ZM40.0303 29.22V15.78C40.0303 15.69 40.0903 15.63 40.1803 15.63H41.4703C42.6403 15.63 43.3903 16.59 43.3903 18.09V26.91C43.3303 28.38 42.5803 29.31 41.5003 29.34L40.1803 29.37C40.0903 29.37 40.0303 29.31 40.0303 29.22Z" fill="#FF9830"/>
<path d="M60.7556 15.27V12.36C60.7556 12.15 60.6056 12 60.3956 12H50.1056C49.8956 12 49.7456 12.15 49.7456 12.36V32.64C49.7456 32.85 49.8956 33 50.1056 33H60.3956C60.6056 33 60.7556 32.85 60.7556 32.64V29.73C60.7556 29.52 60.6056 29.37 60.3956 29.37H54.1256C54.0356 29.37 53.9756 29.31 53.9756 29.22V24.45C53.9756 24.36 54.0356 24.3 54.1256 24.3H57.6956C57.9056 24.3 58.0556 24.15 58.0556 23.94V21.03C58.0556 20.82 57.9056 20.67 57.6956 20.67H54.1256C54.0356 20.67 53.9756 20.61 53.9756 20.52V15.78C53.9756 15.69 54.0356 15.63 54.1256 15.63H60.3956C60.6056 15.63 60.7556 15.48 60.7556 15.27Z" fill="#FF9830"/>
<path d="M62.8791 33H68.3091C71.9391 33 74.3391 30.69 74.3391 27.18V17.82C74.3391 14.31 71.9391 12 68.3091 12H62.8791C62.6691 12 62.5191 12.15 62.5191 12.36V32.64C62.5191 32.85 62.6691 33 62.8791 33ZM66.7491 29.22V15.78C66.7491 15.69 66.8091 15.63 66.8991 15.63H68.1891C69.3591 15.63 70.1091 16.59 70.1091 18.09V26.91C70.0491 28.38 69.2991 29.31 68.2191 29.34L66.8991 29.37C66.8091 29.37 66.7491 29.31 66.7491 29.22Z" fill="#FF9830"/>
<path d="M88.8903 11.97H82.8303C82.6203 11.97 82.4703 12.12 82.4703 12.33V32.64C82.4703 32.85 82.6203 33 82.8303 33H86.3403C86.5503 33 86.7003 32.85 86.7003 32.64V24.66C86.7003 24.57 86.7603 24.51 86.8503 24.51H89.1003C92.3403 24.51 94.5303 22.08 94.5303 18.36C94.5303 14.58 92.2503 11.97 88.8903 11.97ZM88.1703 21.21H86.8503C86.7603 21.21 86.7003 21.15 86.7003 21.06V15.78C86.7003 15.69 86.7603 15.63 86.8503 15.63H88.1703C89.4303 15.63 90.3003 16.65 90.3003 18.45C90.3003 20.22 89.4303 21.21 88.1703 21.21Z" fill="#FF9830"/>
<path d="M102.06 33.24C105.66 33.24 108.03 30.78 108.03 27.03V12.36C108.03 12.15 107.88 12 107.67 12H104.16C103.95 12 103.8 12.15 103.8 12.36V27.45C103.8 28.74 103.11 29.61 102.06 29.61C101.01 29.61 100.35 28.74 100.35 27.45V12.36C100.35 12.15 100.2 12 99.9905 12H96.4805C96.2705 12 96.1205 12.15 96.1205 12.36V27.03C96.1205 30.78 98.4905 33.24 102.06 33.24Z" fill="#FF9830"/>
<path d="M118.67 33H122.27C122.48 33 122.6 32.88 122.6 32.7C122.6 32.67 122.57 32.61 122.57 32.58L119.81 23.73C119.78 23.67 119.81 23.58 119.9 23.55C121.49 22.56 122.45 20.7 122.45 18.33C122.45 14.58 120.17 12 116.81 12H110.75C110.54 12 110.39 12.15 110.39 12.36V32.64C110.39 32.85 110.54 33 110.75 33H114.26C114.47 33 114.62 32.85 114.62 32.64V24.45C114.62 24.36 114.68 24.3 114.77 24.3H115.79C115.88 24.3 115.91 24.36 115.94 24.42L118.25 32.7C118.31 32.88 118.46 33 118.67 33ZM114.77 15.63H116.09C117.35 15.63 118.22 16.65 118.22 18.36C118.22 20.04 117.35 21.06 116.09 21.06H114.77C114.68 21.06 114.62 21 114.62 20.91V15.78C114.62 15.69 114.68 15.63 114.77 15.63Z" fill="#FF9830"/>
<path d="M129.525 33.24C132.975 33.24 135.376 31.02 135.376 27.48C135.376 24.48 133.696 23.16 130.576 20.88C128.446 19.32 127.755 18.63 127.755 17.37C127.755 16.11 128.446 15.39 129.376 15.39C130.396 15.39 131.085 16.2 131.085 17.43V18.24C131.085 18.45 131.235 18.6 131.445 18.6H134.865C135.075 18.6 135.225 18.45 135.225 18.24V17.52C135.225 14.07 132.916 11.76 129.376 11.76C125.956 11.76 123.585 13.95 123.585 17.37C123.585 20.85 126.045 22.62 128.265 24.21C130.335 25.71 131.206 26.37 131.206 27.66C131.206 28.83 130.485 29.61 129.525 29.61C128.565 29.61 127.875 28.8 127.875 27.54V26.88C127.875 26.67 127.725 26.52 127.515 26.52H124.035C123.825 26.52 123.675 26.67 123.675 26.88V27.75C123.675 30.99 126.015 33.24 129.525 33.24Z" fill="#FF9830"/>
<path d="M142.9 33.24C146.5 33.24 148.87 30.78 148.87 27.03V12.36C148.87 12.15 148.72 12 148.51 12H145C144.79 12 144.64 12.15 144.64 12.36V27.45C144.64 28.74 143.95 29.61 142.9 29.61C141.85 29.61 141.19 28.74 141.19 27.45V12.36C141.19 12.15 141.04 12 140.83 12H137.32C137.11 12 136.96 12.15 136.96 12.36V27.03C136.96 30.78 139.33 33.24 142.9 33.24Z" fill="#FF9830"/>
<path d="M151.59 33H155.1C155.31 33 155.46 32.85 155.46 32.64V12.36C155.46 12.15 155.31 12 155.1 12H151.59C151.38 12 151.23 12.15 151.23 12.36V32.64C151.23 32.85 151.38 33 151.59 33Z" fill="#FF9830"/>
<path d="M169.22 12H157.34C157.13 12 156.98 12.15 156.98 12.36V15.27C156.98 15.48 157.13 15.63 157.34 15.63H160.94C161.03 15.63 161.09 15.69 161.09 15.78V32.64C161.09 32.85 161.24 33 161.45 33H164.96C165.17 33 165.32 32.85 165.32 32.64V15.78C165.32 15.69 165.38 15.63 165.47 15.63H169.22C169.43 15.63 169.58 15.48 169.58 15.27V12.36C169.58 12.15 169.43 12 169.22 12Z" fill="#FF9830"/>
</svg>
