<svg width="24" height="24" viewBox="0 0 24 24" fill="none" xmlns="http://www.w3.org/2000/svg">
<path d="M23.1724 22.2857H20.0439L20.6734 19.0254C20.7388 18.6849 20.5998 18.3366 20.3211 18.144L18.2999 16.7483L18.8342 13.98L22.2301 14.4489C22.2673 14.454 22.3037 14.4563 22.3399 14.4563C22.7487 14.4563 23.1037 14.1431 23.1595 13.7126C23.2201 13.2434 22.9015 12.812 22.4483 12.7494L10.868 11.1503C10.4144 11.088 9.99928 11.4174 9.93859 11.8866C9.8779 12.3557 10.1965 12.7871 10.6498 12.8497L13.9849 13.3103L13.253 17.8591C13.2095 18.1326 13.295 18.4103 13.4842 18.6063L14.8081 19.9774L14.2508 22.2857H12.4139C8.76728 22.2857 5.69944 20.4031 4.20677 17.25C1.71961 11.9951 5.22634 6.96314 7.72564 7.852C8.27598 8.04657 8.27598 8.44171 8.27598 8.57143C8.27598 9.04486 8.64618 9.42857 9.10356 9.42857C10.0702 9.42857 11.3915 7.94 11.5813 6.09086C11.9731 2.28343 8.8608 0 5.79324 0C4.00235 0 2.21533 0.421143 0.480172 1.25171C0.065554 1.45057 -0.11541 1.96 0.0768643 2.38971C0.268311 2.81829 0.758239 3.00743 1.17506 2.80771C2.69064 2.08229 4.24401 1.71429 5.79324 1.71429C7.79598 1.71429 10.2241 3.09086 9.9361 5.90914C9.88204 6.43514 9.70245 6.85371 9.50852 7.15714C9.22163 6.74114 8.79652 6.41914 8.26136 6.22971C4.18277 4.78086 -0.374167 11.4671 2.72071 18.0046C4.4978 21.7589 8.12094 24 12.4139 24H23.1724C23.6298 24 24 23.6163 24 23.1429C24 22.6694 23.6298 22.2857 23.1724 22.2857ZM17.1901 13.7529L16.701 16.2857H15.1841L15.6263 13.5369L17.1901 13.7529ZM16.3093 19.1083L15.2398 18H17.1292L18.9418 19.2517L18.3562 22.2857H15.9565L16.527 19.9223C16.5978 19.6303 16.5145 19.3214 16.3093 19.1083Z" fill="#0F5252"/>
<path d="M4.13471 5.13952C3.09015 5.30204 2.16586 5.77211 1.38611 6.53662C1.0853 6.83251 0.577288 6.84709 0.25568 6.57476C-0.0677951 6.30073 -0.0864623 5.83965 0.214346 5.54449C1.23784 4.54021 2.46667 3.92025 3.86591 3.70258C4.30272 3.63577 4.71526 3.90178 4.7886 4.29825C4.8638 4.69495 4.57073 5.0715 4.13471 5.13952Z" fill="#0F5252"/>
<path d="M17.4004 11.0769C18.7238 11.0769 19.8004 9.97279 19.8004 8.61539C19.8004 7.25798 18.7238 6.15385 17.4004 6.15385C16.0769 6.15385 15.0004 7.25798 15.0004 8.61539C15.0004 9.97279 16.0769 11.0769 17.4004 11.0769ZM17.4004 7.79487C17.8417 7.79487 18.2004 8.16301 18.2004 8.61539C18.2004 9.06776 17.8417 9.4359 17.4004 9.4359C16.959 9.4359 16.6004 9.06776 16.6004 8.61539C16.6004 8.16301 16.959 7.79487 17.4004 7.79487Z" fill="#0F5252"/>
</svg>
