<svg width="24" height="24" viewBox="0 0 24 24" fill="none" xmlns="http://www.w3.org/2000/svg">
<path d="M18.8571 15.4286C18.8571 14.956 18.4728 14.5714 18 14.5714H9.42855C8.95484 14.5714 8.57141 14.1877 8.57141 13.7143C8.57141 13.2409 8.95484 12.8571 9.42855 12.8571H18C19.418 12.8571 20.5714 14.0106 20.5714 15.4286C20.5714 16.8466 19.418 18 18 18C17.5263 18 17.1428 17.6163 17.1428 17.1429C17.1428 16.6694 17.5263 16.2857 18 16.2857C18.4728 16.2857 18.8571 15.9011 18.8571 15.4286Z" fill="#0F5252"/>
<path d="M8.57141 17.1429C8.57141 16.6694 8.95484 16.2857 9.42855 16.2857H12.8571C14.2751 16.2857 15.4286 17.4391 15.4286 18.8571C15.4286 20.2751 14.2751 21.4286 12.8571 21.4286C12.3834 21.4286 12 21.0449 12 20.5714C12 20.098 12.3834 19.7143 12.8571 19.7143C13.33 19.7143 13.7143 19.3297 13.7143 18.8571C13.7143 18.3846 13.33 18 12.8571 18H9.42855C8.95484 18 8.57141 17.6163 8.57141 17.1429Z" fill="#0F5252"/>
<path d="M23.2283 2.57571L6.08543 0.861429C5.58971 0.810286 5.14286 1.20086 5.14286 1.71429V2.70257L1.71429 3.274V0.857143C1.71429 0.383714 1.33086 0 0.857143 0C0.383429 0 0 0.383714 0 0.857143V23.1429C0 23.6163 0.383429 24 0.857143 24C1.33086 24 1.71429 23.6163 1.71429 23.1429V8.726L5.14286 9.29743V10.2857C5.14286 10.7963 5.58629 11.19 6.08543 11.1386L23.2283 9.42429C23.666 9.38057 24 9.01171 24 8.57143V3.42857C24 2.98829 23.666 2.61943 23.2283 2.57571ZM5.14286 7.55971L1.71429 6.98829V5.01171L5.14286 4.44029V7.55971ZM9.42857 9.08143L6.85714 9.33857V2.66143L9.42857 2.91857V9.08143ZM13.7143 8.65286L11.1429 8.91V3.09L13.7143 3.34714V8.65286ZM18 8.22429L15.4286 8.48143V3.51857L18 3.77571V8.22429ZM22.2857 7.796L19.7143 8.05314V3.94686L22.2857 4.204V7.796Z" fill="#0F5252"/>
</svg>
